<?xml version="1.0" encoding="UTF-8" standalone="no"?>
<!-- Created with Inkscape (http://www.inkscape.org/) -->

<svg
   width="1280"
   height="720"
   viewBox="0 0 14034.662 7894.4976"
   version="1.1"
   id="svg5"
   inkscape:export-filename="D:\GIT\logo1_1.png"
   inkscape:export-xdpi="600"
   inkscape:export-ydpi="600"
   inkscape:version="1.1 (c68e22c387, 2021-05-23)"
   sodipodi:docname="mian.svg"
   xmlns:inkscape="http://www.inkscape.org/namespaces/inkscape"
   xmlns:sodipodi="http://sodipodi.sourceforge.net/DTD/sodipodi-0.dtd"
   xmlns="http://www.w3.org/2000/svg"
   xmlns:svg="http://www.w3.org/2000/svg">
  <sodipodi:namedview
     id="namedview7"
     pagecolor="#ffffff"
     bordercolor="#cccccc"
     borderopacity="1"
     inkscape:pageshadow="0"
     inkscape:pageopacity="1"
     inkscape:pagecheckerboard="false"
     inkscape:document-units="px"
     showgrid="false"
     units="px"
     scale-x="10.96458"
     inkscape:lockguides="false"
     inkscape:zoom="0.70710678"
     inkscape:cx="538.55213"
     inkscape:cy="385.61976"
     inkscape:window-width="1920"
     inkscape:window-height="1001"
     inkscape:window-x="-9"
     inkscape:window-y="-9"
     inkscape:window-maximized="1"
     inkscape:current-layer="layer3" />
  <defs
     id="defs2">
    <rect
       x="-271.95916"
       y="299.3659"
       width="161.27811"
       height="94.869476"
       id="rect19335" />
  </defs>
  <g
     inkscape:label="Layer 1"
     inkscape:groupmode="layer"
     id="layer1"
     style="display:inline">
    <rect
       style="opacity:1;fill:#000000;stroke:none;stroke-width:128.178;stroke-linecap:round;stroke-linejoin:round;stroke-miterlimit:4;stroke-dasharray:none;paint-order:markers fill stroke"
       id="rect2117"
       width="7445.0005"
       height="8044.2988"
       x="0"
       y="-74.900673" />
  </g>
  <g
     inkscape:groupmode="layer"
     id="layer2"
     inkscape:label="box" />
  <g
     inkscape:groupmode="layer"
     id="layer3"
     inkscape:label="lines">
    <text
       xml:space="preserve"
       transform="scale(10.96458)"
       id="text19333"
       style="fill:black;stroke:none;stroke-opacity:1;stroke-width:1px;stroke-linejoin:miter;stroke-linecap:butt;fill-opacity:1;font-family:sans-serif;font-style:normal;font-weight:normal;font-size:40px;line-height:125%;letter-spacing:0px;word-spacing:0px;white-space:pre;shape-inside:url(#rect19335)" />
    <g
       id="g38676"
       transform="matrix(0.55440066,0,0,0.55440066,8596.5381,2490.915)"
       style="display:inline;fill:#000000;fill-opacity:1">
      <g
         id="g866"
         transform="matrix(1.6445974,0,0,1.6445974,-1751.6278,-3460.5943)">
        <path
           style="color:#000000;fill:#000000;fill-opacity:1;stroke-linecap:round;stroke-linejoin:round;-inkscape-stroke:none;paint-order:stroke markers fill"
           d="m 3816.9336,2035.8457 a 22.082649,22.082649 0 0 0 -21.2422,6.0391 L 2723.6289,3147.1016 a 22.084857,22.084857 0 0 0 0,30.75 l 1072.0625,1105.2168 a 22.082649,22.082649 0 0 0 31.2266,0.4765 22.082649,22.082649 0 0 0 0.4765,-31.2265 L 2770.2441,3162.4766 3827.3945,2072.6348 a 22.082649,22.082649 0 0 0 -0.4765,-31.2266 22.082649,22.082649 0 0 0 -9.9844,-5.5625 z"
           id="path38670" />
        <path
           style="color:#000000;fill:#000000;fill-opacity:1;stroke-linecap:square;stroke-linejoin:round;-inkscape-stroke:none;paint-order:stroke fill markers"
           d="m 3497.9891,3066.2503 -13.243,49.6873 15.414,15.8125 1059.5586,1086.9062 -1075.7773,1103.3145 -15.416,15.8105 31.6211,30.832 15.416,-15.8105 1090.8066,-1118.7285 c 8.361,-8.5769 8.361,-22.2552 0,-30.8321 L 3531.7851,3100.92 Z"
           id="path38672"
           sodipodi:nodetypes="cccccccccccc" />
        <path
           style="color:#000000;fill:#000000;fill-opacity:1;stroke-linecap:square;stroke-linejoin:bevel;-inkscape-stroke:none;paint-order:stroke markers fill"
           d="m 3466.957,2382.7402 v 16.5957 2952.6817 16.5957 h 33.1895 v -16.5957 -2952.6817 -16.5957 z"
           id="path38674" />
      </g>
    </g>
    <g
       id="g149436"
       transform="matrix(0.55440066,0,0,0.55440066,1351.9646,2490.1703)"
       style="display:inline;fill:#ffffff;fill-opacity:1">
      <g
         id="g149434"
         transform="matrix(1.6445974,0,0,1.6445974,-1751.6278,-3460.5943)"
         style="fill:#ffffff;fill-opacity:1">
        <path
           style="color:#000000;fill:#ffffff;fill-opacity:1;stroke-linecap:round;stroke-linejoin:round;-inkscape-stroke:none;paint-order:stroke markers fill"
           d="m 3816.9336,2035.8457 a 22.082649,22.082649 0 0 0 -21.2422,6.0391 L 2723.6289,3147.1016 a 22.084857,22.084857 0 0 0 0,30.75 l 1072.0625,1105.2168 a 22.082649,22.082649 0 0 0 31.2266,0.4765 22.082649,22.082649 0 0 0 0.4765,-31.2265 L 2770.2441,3162.4766 3827.3945,2072.6348 a 22.082649,22.082649 0 0 0 -0.4765,-31.2266 22.082649,22.082649 0 0 0 -9.9844,-5.5625 z"
           id="path149428" />
        <path
           style="color:#000000;fill:#ffffff;fill-opacity:1;stroke-linecap:square;stroke-linejoin:round;-inkscape-stroke:none;paint-order:stroke fill markers"
           d="m 3497.9891,3066.2503 -13.243,49.6873 15.414,15.8125 1059.5586,1086.9062 -1075.7773,1103.3145 -15.416,15.8105 31.6211,30.832 15.416,-15.8105 1090.8066,-1118.7285 c 8.361,-8.5769 8.361,-22.2552 0,-30.8321 L 3531.7851,3100.92 Z"
           id="path149430"
           sodipodi:nodetypes="cccccccccccc" />
        <path
           style="color:#000000;fill:#ffffff;fill-opacity:1;stroke-linecap:square;stroke-linejoin:bevel;-inkscape-stroke:none;paint-order:stroke markers fill"
           d="m 3466.957,2382.7402 v 16.5957 2952.6817 16.5957 h 33.1895 v -16.5957 -2952.6817 -16.5957 z"
           id="path149432" />
      </g>
    </g>
  </g>
</svg>
